<svg width="200" height="200" viewBox="0 0 200 200" fill="none" xmlns="http://www.w3.org/2000/svg">
  <defs>
    <linearGradient id="grad2" x1="0%" y1="0%" x2="100%" y2="100%">
      <stop offset="0%" style="stop-color:#667eea;stop-opacity:1" />
      <stop offset="100%" style="stop-color:#764ba2;stop-opacity:1" />
    </linearGradient>
  </defs>
  <rect x="30" y="50" width="140" height="100" rx="8" fill="url(#grad2)" opacity="0.1"/>
  <rect x="40" y="60" width="120" height="80" rx="4" fill="white" stroke="url(#grad2)" stroke-width="2"/>
  <circle cx="60" cy="80" r="6" fill="url(#grad2)"/>
  <rect x="75" y="75" width="60" height="3" rx="1.5" fill="url(#grad2)"/>
  <rect x="75" y="85" width="40" height="3" rx="1.5" fill="url(#grad2)" opacity="0.7"/>
  <circle cx="60" cy="110" r="6" fill="url(#grad2)" opacity="0.7"/>
  <rect x="75" y="105" width="50" height="3" rx="1.5" fill="url(#grad2)" opacity="0.7"/>
  <rect x="75" y="115" width="35" height="3" rx="1.5" fill="url(#grad2)" opacity="0.7"/>
  <path d="M50 40 L70 60 L50 80 L30 60 Z" fill="url(#grad2)"/>
  <path d="M150 40 L170 60 L150 80 L130 60 Z" fill="url(#grad2)"/>
  <path d="M100 20 L120 40 L100 60 L80 40 Z" fill="url(#grad2)" opacity="0.7"/>
  <path d="M100 140 L120 160 L100 180 L80 160 Z" fill="url(#grad2)" opacity="0.7"/>
</svg>
