<svg width="200" height="200" viewBox="0 0 200 200" fill="none" xmlns="http://www.w3.org/2000/svg">
  <defs>
    <linearGradient id="grad1" x1="0%" y1="0%" x2="100%" y2="100%">
      <stop offset="0%" style="stop-color:#667eea;stop-opacity:1" />
      <stop offset="100%" style="stop-color:#764ba2;stop-opacity:1" />
    </linearGradient>
  </defs>
  <rect x="40" y="30" width="120" height="140" rx="8" fill="url(#grad1)" opacity="0.1"/>
  <rect x="50" y="40" width="100" height="120" rx="4" fill="white" stroke="url(#grad1)" stroke-width="2"/>
  <rect x="60" y="60" width="80" height="4" rx="2" fill="url(#grad1)"/>
  <rect x="60" y="75" width="60" height="4" rx="2" fill="url(#grad1)" opacity="0.7"/>
  <rect x="60" y="90" width="70" height="4" rx="2" fill="url(#grad1)" opacity="0.7"/>
  <rect x="60" y="105" width="50" height="4" rx="2" fill="url(#grad1)" opacity="0.7"/>
  <circle cx="80" cy="130" r="8" fill="url(#grad1)"/>
  <rect x="95" y="125" width="30" height="4" rx="2" fill="url(#grad1)" opacity="0.7"/>
  <rect x="95" y="135" width="25" height="4" rx="2" fill="url(#grad1)" opacity="0.7"/>
  <path d="M70 160 L130 160 L130 170 L70 170 Z" fill="url(#grad1)" opacity="0.3"/>
  <path d="M70 175 L120 175 L120 185 L70 185 Z" fill="url(#grad1)" opacity="0.3"/>
</svg>
